<?xml version="1.0" standalone="no"?>
<!DOCTYPE svg PUBLIC "-//W3C//DTD SVG 20010904//EN"
 "http://www.w3.org/TR/2001/REC-SVG-20010904/DTD/svg10.dtd">
<svg version="1.0" xmlns="http://www.w3.org/2000/svg"
 width="1280.000000pt" height="1026.000000pt" viewBox="0 0 1280.000000 1026.000000"
 preserveAspectRatio="xMidYMid meet">
<metadata>
Created by potrace 1.15, written by Peter Selinger 2001-2017
</metadata>
<g transform="translate(0.000000,1026.000000) scale(0.100000,-0.100000)"
fill="#000000" stroke="none">
<path d="M10793 10116 c-61 -79 -136 -167 -169 -196 -32 -28 -76 -73 -98 -98
-47 -58 -47 -58 -121 -66 -78 -9 -347 -114 -581 -226 -133 -64 -236 -124 -385
-222 -209 -138 -208 -138 -401 -194 -34 -10 -18 -22 61 -49 80 -26 93 -26 196
1 11 3 -70 -40 -180 -95 l-199 -101 -131 -137 c-167 -176 -209 -222 -203 -228
2 -2 44 2 93 10 50 8 94 15 100 15 17 0 -79 -92 -132 -127 -29 -18 -53 -37
-53 -41 0 -4 33 -5 73 -1 167 17 167 20 6 -82 -97 -62 -175 -103 -238 -126
-87 -31 -102 -41 -193 -125 -54 -49 -96 -94 -93 -98 2 -4 55 3 117 16 62 13
124 23 138 24 44 0 -100 -75 -228 -120 -444 -156 -555 -212 -748 -377 -69 -59
-122 -109 -117 -110 5 -2 44 12 86 32 l77 34 0 -43 c0 -40 -5 -48 -62 -104
-35 -33 -72 -72 -83 -87 -19 -24 -31 -27 -260 -60 l-240 -33 -405 13 c-387 12
-418 15 -690 55 -314 46 -534 96 -807 184 -289 94 -316 98 -527 85 -154 -9
-210 -17 -378 -55 -173 -40 -226 -58 -437 -144 -149 -60 -274 -119 -328 -152
-110 -68 -144 -81 -316 -118 -164 -36 -250 -38 -402 -10 -81 15 -152 20 -275
20 l-166 0 -144 -48 c-187 -63 -426 -199 -581 -330 -98 -84 -106 -93 -203
-252 l-101 -166 -52 -209 c-49 -192 -56 -240 -93 -570 -22 -198 -44 -448 -50
-555 -5 -107 -20 -266 -32 -353 l-21 -157 -65 -101 c-35 -55 -62 -102 -59
-105 3 -3 33 9 67 26 34 17 64 29 66 27 10 -9 -39 -171 -79 -262 -25 -55 -113
-238 -197 -408 -145 -294 -153 -314 -193 -470 l-42 -162 11 -151 c6 -83 15
-157 19 -165 4 -8 33 -54 64 -104 l56 -89 5 74 c6 84 3 86 55 -42 15 -38 31
-68 36 -68 5 0 9 28 9 62 0 34 2 59 5 56 3 -3 17 -47 31 -97 23 -85 33 -103
116 -214 79 -106 108 -140 108 -125 0 2 -16 51 -36 109 -32 93 -78 279 -70
286 1 1 25 -27 52 -63 27 -36 55 -73 61 -82 29 -36 21 2 -26 124 -44 115 -50
143 -59 249 -6 66 -9 121 -8 123 2 1 25 -55 52 -125 27 -71 54 -128 59 -128 6
0 16 34 23 75 8 41 15 77 17 79 2 2 25 -14 50 -34 25 -21 48 -36 50 -33 3 2
-6 43 -19 91 -12 48 -22 87 -21 87 1 0 39 -45 84 -100 45 -55 86 -100 90 -100
5 0 -12 69 -36 153 l-46 152 13 140 c6 77 18 172 24 210 l13 70 11 -40 c6 -22
16 -61 23 -88 11 -46 28 -72 29 -45 1 7 9 60 18 118 13 79 25 115 45 145 l27
40 0 -65 c0 -44 -10 -96 -30 -160 -17 -51 -30 -95 -30 -97 0 -14 23 7 64 57
27 34 50 59 52 58 7 -8 -18 -160 -32 -193 -38 -91 -82 -225 -75 -225 5 0 51
52 103 116 l95 115 22 130 c12 72 26 190 32 262 9 118 15 145 57 257 39 105
61 147 144 268 93 136 99 149 123 245 34 136 36 139 47 97 28 -103 40 -140 47
-140 16 0 53 224 66 401 8 99 15 265 15 368 1 162 -3 218 -30 407 -29 198 -32
234 -26 374 5 152 6 158 57 315 50 155 53 162 125 254 71 90 81 98 176 149 81
44 241 102 281 102 4 0 -17 -33 -46 -72 -73 -100 -174 -368 -208 -550 -23
-127 -23 -129 -11 -450 16 -392 51 -821 92 -1102 32 -225 39 -412 19 -507 -13
-58 -96 -203 -162 -282 -23 -27 -72 -69 -109 -93 -84 -54 -274 -141 -398 -182
-89 -30 -97 -35 -127 -80 -27 -39 -34 -62 -43 -142 -14 -114 -142 -602 -207
-785 -103 -292 -145 -398 -225 -566 -94 -193 -190 -344 -295 -459 -113 -125
-130 -151 -141 -211 -8 -43 -8 -70 3 -115 15 -66 4 -113 -33 -133 -30 -16 -45
-14 -86 14 -56 38 -150 59 -220 51 -53 -7 -65 -13 -114 -59 -36 -34 -65 -73
-83 -112 -79 -174 -139 -417 -139 -560 1 -62 4 -74 29 -103 l28 -32 267 131
c261 129 268 133 310 188 24 31 55 79 69 106 47 93 149 168 263 196 131 31
212 111 269 264 114 304 345 800 530 1135 119 216 196 338 272 431 58 70 351
340 419 385 21 14 84 70 139 124 213 209 425 387 580 487 83 53 196 134 252
180 57 46 105 83 107 83 3 0 12 -24 20 -54 22 -75 21 -304 -3 -471 -16 -113
-26 -147 -75 -265 -32 -76 -63 -168 -71 -210 -21 -117 -26 -221 -12 -257 14
-37 55 -73 558 -499 303 -257 388 -335 497 -456 215 -238 299 -346 387 -494
92 -154 123 -184 213 -199 24 -4 46 -13 49 -21 6 -15 -27 -72 -70 -120 -41
-47 -53 -125 -38 -235 l13 -86 126 -88 c148 -102 308 -185 407 -210 63 -16 75
-16 120 -4 41 12 51 19 53 39 1 14 -20 123 -48 243 -49 211 -52 222 -129 376
l-80 158 -11 124 c-6 68 -15 138 -19 155 -15 55 -82 133 -195 229 -329 277
-462 412 -743 753 -155 188 -246 313 -269 368 -9 21 -22 79 -29 129 -12 89
-12 91 17 172 15 45 56 147 89 225 226 530 267 645 324 898 45 201 46 210 52
428 5 197 8 222 22 218 9 -3 34 -9 56 -14 22 -5 110 -41 196 -80 237 -109 586
-229 1010 -351 211 -60 514 -148 673 -195 395 -117 559 -146 829 -146 108 0
197 -3 197 -7 0 -37 54 -638 70 -783 15 -141 21 -263 23 -510 2 -370 1 -379
-80 -527 -34 -63 -61 -97 -116 -146 -104 -92 -303 -241 -447 -335 -202 -131
-265 -207 -285 -345 -6 -38 -15 -54 -44 -78 -31 -26 -41 -29 -76 -24 -22 3
-51 17 -65 29 -14 13 -49 36 -79 51 -44 22 -63 26 -99 21 -63 -9 -170 -88
-269 -199 -73 -82 -88 -107 -143 -229 -33 -75 -66 -162 -72 -193 -10 -52 -10
-57 12 -80 20 -22 32 -25 89 -25 36 0 134 9 216 19 235 30 405 96 628 245 96
64 141 103 245 213 299 319 432 453 527 533 330 278 429 367 465 418 59 82 89
187 106 372 16 175 28 271 49 380 14 70 91 578 114 755 6 44 48 205 93 357 79
270 82 277 111 288 43 15 45 14 53 -26 5 -28 17 -43 52 -68 25 -17 147 -112
271 -212 195 -155 247 -191 381 -263 85 -46 204 -113 263 -148 109 -65 428
-309 566 -432 126 -113 236 -299 359 -611 75 -190 112 -369 112 -544 0 -113
25 -299 55 -416 11 -44 27 -76 49 -100 47 -51 58 -84 50 -147 -5 -43 -12 -58
-37 -79 -26 -22 -34 -41 -53 -127 -13 -56 -24 -128 -24 -160 0 -52 4 -64 47
-127 96 -146 331 -299 526 -346 67 -15 81 -16 118 -4 l42 14 -6 66 c-3 36 -22
151 -42 255 -33 167 -41 196 -72 244 -19 29 -46 83 -60 120 -23 60 -26 83 -29
245 -5 245 -20 322 -109 581 -42 121 -93 288 -115 370 -39 151 -144 615 -181
799 -23 116 -29 125 -198 301 -106 109 -140 156 -390 530 -151 226 -301 447
-334 493 -104 145 -126 188 -117 225 4 19 91 184 194 368 171 304 189 341 201
409 17 96 -1 279 -44 467 -23 98 -31 155 -31 228 l0 96 124 327 c122 319 248
678 447 1271 54 161 104 300 110 307 9 11 15 11 38 0 118 -60 285 -82 475 -62
130 13 142 13 195 -5 31 -10 154 -41 274 -69 l217 -52 32 -46 c48 -73 108
-131 162 -159 47 -24 53 -25 104 -13 30 6 84 27 119 46 36 19 106 46 156 61
81 24 91 30 103 59 8 20 24 36 43 42 52 18 73 76 75 206 1 121 -16 274 -40
348 -18 56 -35 69 -175 143 -89 46 -127 76 -337 267 -130 118 -272 253 -314
299 -71 78 -77 89 -84 139 -8 66 -35 100 -114 140 -30 15 -127 79 -216 142
-88 62 -204 142 -257 177 -53 35 -97 67 -97 71 0 4 36 59 79 122 44 63 95 147
115 186 31 62 36 81 36 142 0 65 -2 71 -24 82 -23 10 -32 5 -103 -55 -43 -36
-91 -80 -108 -97 -28 -30 -152 -96 -162 -86 -3 2 3 31 13 63 9 32 22 95 29
141 11 80 10 84 -12 117 -22 32 -28 35 -72 35 l-49 0 -109 -144z"/>
</g>
</svg>
